<svg width="20" height="18" viewBox="0 0 20 18" fill="none" xmlns="http://www.w3.org/2000/svg">
<path d="M16.5 11C16.5 11.6904 15.9404 12.25 15.25 12.25C14.5596 12.25 14 11.6904 14 11C14 10.3096 14.5596 9.75 15.25 9.75C15.9404 9.75 16.5 10.3096 16.5 11Z" fill="#7C8896"/>
<path fill-rule="evenodd" clip-rule="evenodd" d="M2.75 0C1.23122 0 0 1.23122 0 2.75V16C0 17.1046 0.89543 18 2 18H18C19.1046 18 20 17.1046 20 16V6C20 4.89543 19.1046 4 18 4V2C18 0.89543 17.1046 0 16 0H2.75ZM16.5 2C16.5 1.72386 16.2761 1.5 16 1.5H2.75C2.05964 1.5 1.5 2.05964 1.5 2.75C1.5 3.44036 2.05964 4 2.75 4H16.5V2ZM1.5 5.20015C1.87503 5.39186 2.29989 5.5 2.75 5.5H18C18.2761 5.5 18.5 5.72386 18.5 6V16C18.5 16.2761 18.2761 16.5 18 16.5H2C1.72386 16.5 1.5 16.2761 1.5 16V5.20015Z" fill="#7C8896"/>
</svg>
