<svg width="20" height="20" viewBox="0 0 20 20" fill="none" xmlns="http://www.w3.org/2000/svg">
<path d="M15.75 10.25C16.3023 10.25 16.75 9.8023 16.75 9.25C16.75 8.6977 16.3023 8.25 15.75 8.25C15.1977 8.25 14.75 8.6977 14.75 9.25C14.75 9.8023 15.1977 10.25 15.75 10.25Z" fill="#7C8896"/>
<path fill-rule="evenodd" clip-rule="evenodd" d="M5 0C4.44772 0 4 0.44772 4 1V5H3C1.34315 5 0 6.34315 0 8V15C0 16.1046 0.89543 17 2 17H4V19C4 19.5523 4.44772 20 5 20H15C15.5523 20 16 19.5523 16 19V17H18C19.1046 17 20 16.1046 20 15V8C20 6.34315 18.6569 5 17 5H16V1C16 0.44772 15.5523 0 15 0H5ZM14.5 5V1.5H5.5V5H14.5ZM16 15.5H18C18.2761 15.5 18.5 15.2761 18.5 15V8C18.5 7.17157 17.8284 6.5 17 6.5H3C2.17157 6.5 1.5 7.17157 1.5 8V15C1.5 15.2761 1.72386 15.5 2 15.5H4V13C4 12.4477 4.44772 12 5 12H15C15.5523 12 16 12.4477 16 13V15.5ZM5.5 18.5V13.5H14.5V18.5H5.5Z" fill="#7C8896"/>
</svg>
